<svg width="56" height="56" viewBox="0 0 56 56" fill="none" xmlns="http://www.w3.org/2000/svg">
<g clip-path="url(#clip0_15_714)">
<path d="M51.5944 16.4784C49.1422 12.8984 44.9264 10.0131 40.1056 8.48399C39.9769 7.67222 39.5966 6.92133 39.0184 6.3372C38.4402 5.75306 37.6932 5.36515 36.8828 5.22814C36.0723 5.09114 35.2394 5.21196 34.5013 5.57357C33.7632 5.93518 33.1572 6.51934 32.7687 7.24368C27.2291 7.03937 22.3475 8.50237 18.5027 11.5587C13.7187 15.3619 10.9016 21.3312 10.3569 28.8207C10.3274 29.2831 10.1438 29.7222 9.83544 30.0681C9.57075 30.3446 3.33112 36.8769 1.33787 39.312C0.99552 39.7479 0.744181 40.2481 0.598762 40.783C0.453342 41.3178 0.416803 41.8764 0.491311 42.4257C0.557775 42.9608 0.734224 43.4764 1.00956 43.94C1.2849 44.4037 1.65318 44.8054 2.09125 45.1198C6.10312 48.0104 10.0279 44.0961 12.4189 41.6504C16.6346 42.8317 20.0554 45.4654 22.8187 47.5912C23.9356 48.5096 25.1225 49.3394 26.3686 50.0732C27.3284 50.5804 28.3988 50.8425 29.4844 50.8362C35.3032 50.8362 41.6032 43.8471 44.3345 40.4272C44.5393 40.1721 44.8015 39.9692 45.0997 39.8348C45.3979 39.7004 45.7237 39.6385 46.0504 39.6541C47.0404 39.6957 48.2011 39.7119 49.5005 39.6979C50.8777 39.6868 52.2046 39.1788 53.2371 38.2675C54.2697 37.3561 54.9385 36.1026 55.1206 34.7375C56.2104 27.0152 55.1889 21.7258 51.5944 16.4784ZM36.729 6.53274C37.1437 6.61344 37.5324 6.79442 37.8611 7.05989C38.1898 7.32535 38.4485 7.66723 38.6146 8.05568C37.8563 7.86464 37.0885 7.70772 36.3112 7.58493C35.6469 7.48311 34.9795 7.40286 34.3101 7.34431C34.6095 7.01251 34.9894 6.76351 35.4131 6.62135C35.8368 6.47919 36.2901 6.44868 36.729 6.53274ZM53.8208 34.5524C53.6813 35.6061 53.166 36.5739 52.3697 37.2779C51.5734 37.9819 50.5497 38.3747 49.4869 38.3841C48.2108 38.3985 47.0724 38.3841 46.1064 38.3425C45.5735 38.3193 45.0427 38.4217 44.5568 38.6415C44.0708 38.8613 43.6434 39.1923 43.309 39.6077C40.9465 42.5652 32.7902 51.9724 26.9802 48.9121C25.8016 48.2107 24.6779 47.421 23.6189 46.5496C20.7244 44.3227 17.1321 41.5586 12.5842 40.3331C12.5256 40.3174 12.3266 40.2662 12.3051 40.2605C7.80587 39.1151 4.16762 39.4822 2.56637 41.244C2.50634 41.3074 2.45955 41.3821 2.42875 41.4638C2.39795 41.5455 2.38376 41.6325 2.38701 41.7197C2.39027 41.807 2.41089 41.8927 2.44768 41.9719C2.48447 42.051 2.53669 42.1221 2.60128 42.1808C2.66587 42.2395 2.74153 42.2848 2.82383 42.3139C2.90612 42.3431 2.99341 42.3555 3.08056 42.3505C3.16772 42.3454 3.253 42.3231 3.33141 42.2847C3.40982 42.2463 3.47977 42.1926 3.53719 42.1269C4.40212 41.1753 6.83112 40.4473 10.9274 41.2891C8.21844 43.9823 5.55625 45.9961 2.85819 44.0562C2.56482 43.8469 2.31854 43.5784 2.13521 43.2681C1.95188 42.9578 1.83557 42.6126 1.79375 42.2546C1.74117 41.8832 1.76368 41.5049 1.85995 41.1423C1.95622 40.7797 2.12428 40.4401 2.35419 40.1437C4.31462 37.7471 10.7187 31.0419 10.7931 30.9654C11.3062 30.3997 11.6137 29.6776 11.6659 28.9157C12.1835 21.8019 14.8299 16.1551 19.3196 12.5864C23.6687 9.12712 29.4766 7.84524 36.1086 8.88124C42.1111 9.81749 47.6302 13.0126 50.512 17.2191C54.4727 23.0024 54.6993 28.3312 53.8208 34.5524Z" fill="#0ABAB5" stroke="#0ABAB5"/>
<path d="M42.2021 38.8312C42.1172 38.8312 42.0331 38.8147 41.9545 38.7826C38.9196 37.4937 35.975 36.0018 33.1406 34.3171C29.4586 32.2271 25.9814 30.2531 21.5687 29.2175C18.7229 28.5565 15.7697 28.5032 12.9019 29.0609C12.8173 29.0775 12.7303 29.0773 12.6458 29.0603C12.5613 29.0433 12.481 29.0098 12.4095 28.9617C12.3379 28.9136 12.2765 28.852 12.2288 28.7802C12.1811 28.7084 12.148 28.6279 12.1314 28.5434C12.1148 28.4588 12.115 28.3718 12.1321 28.2873C12.1491 28.2028 12.1826 28.1225 12.2307 28.051C12.2787 27.9794 12.3404 27.918 12.4122 27.8703C12.484 27.8226 12.5644 27.7895 12.649 27.7729C15.6996 27.1784 18.8414 27.2353 21.8684 27.9401C26.4622 29.0185 30.0212 31.0376 33.7872 33.1756C36.5731 34.832 39.4671 36.2991 42.4497 37.5672C42.5907 37.6247 42.7072 37.7293 42.7795 37.8632C42.8518 37.9971 42.8753 38.152 42.846 38.3013C42.8167 38.4506 42.7364 38.5851 42.6188 38.6818C42.5013 38.7784 42.3543 38.8312 42.2021 38.8312Z" fill="#0ABAB5" stroke="#0ABAB5"/>
</g>
<defs>
<clipPath id="clip0_15_714">
<rect width="56" height="56" fill="white"/>
</clipPath>
</defs>
</svg>
