<svg width="56" height="56" viewBox="0 0 56 56" fill="none" xmlns="http://www.w3.org/2000/svg">
<g clip-path="url(#clip0_75_532)">
<path d="M38.5 37.9527C37.8959 37.9527 37.4062 38.4427 37.4062 39.0464C37.4062 39.6502 37.8959 40.1402 38.5 40.1402C39.1038 40.1402 39.5938 39.6502 39.5938 39.0464C39.5938 38.4427 39.1038 37.9527 38.5 37.9527ZM29.0938 18.7031C29.0938 18.099 28.6038 17.6094 28 17.6094C27.3962 17.6094 26.9062 18.099 26.9062 18.7031C26.9062 19.3069 27.3962 19.7969 28 19.7969C28.6038 19.7969 29.0938 19.3069 29.0938 18.7031ZM17.5 40.1402C18.1037 40.1402 18.5938 39.6502 18.5938 39.0464C18.5938 38.4427 18.1037 37.9527 17.5 37.9527C16.8963 37.9527 16.4062 38.4427 16.4062 39.0464C16.4062 39.6502 16.8963 40.1402 17.5 40.1402Z" fill="#0ABAB5"/>
<path d="M55.3504 45.3377L49.4372 42.7105V18.7031C49.4372 18.27 49.1779 17.8687 48.7657 17.6936L29.0939 9.23278V1.20312C29.0939 0.599047 28.6039 0.109375 28.0002 0.109375C27.3961 0.109375 26.9064 0.599047 26.9064 1.20312V9.23278L7.23478 17.6936C6.84377 17.8559 6.56311 18.252 6.56311 18.7031V42.7105L0.649862 45.3377C0.0979555 45.5833 -0.150763 46.2293 0.0944554 46.7813C0.338034 47.3298 0.982252 47.5837 1.53821 47.3367L7.66353 44.6152L27.5681 53.1759C27.8313 53.2891 28.153 53.2959 28.4324 53.1759L48.3365 44.6152L54.4619 47.3367C55.02 47.5846 55.663 47.3278 55.9057 46.7813C56.1509 46.2293 55.9022 45.5833 55.3503 45.3376L55.3504 45.3377ZM26.9064 11.6142V14.3281C26.9064 14.9319 27.3961 15.4219 28.0002 15.4219C28.6039 15.4219 29.0939 14.9319 29.0939 14.3281V11.6142L45.5754 18.7031L28.0002 26.2624L10.4249 18.7031L26.9064 11.6142ZM14.5022 40.3796C14.2565 39.8276 13.6101 39.5793 13.0585 39.8241L8.75017 41.7386V20.3639L26.9064 28.173V50.5104L10.387 43.4053L13.9468 41.8236C14.4988 41.5779 14.7474 40.9314 14.5022 40.3795V40.3796ZM29.0939 50.5104V28.173L47.2497 20.3639V41.7385L42.9418 39.8244C42.3894 39.5792 41.7434 39.8275 41.4981 40.3799C41.2529 40.9318 41.5015 41.5779 42.0536 41.8236L45.6134 43.4051L29.0939 50.5104Z" fill="#0ABAB5"/>
</g>
<defs>
<clipPath id="clip0_75_532">
<rect width="56" height="56" fill="white"/>
</clipPath>
</defs>
</svg>
