<svg width="56" height="56" viewBox="0 0 56 56" fill="none" xmlns="http://www.w3.org/2000/svg">
<g clip-path="url(#clip0_15_726)">
<path fill-rule="evenodd" clip-rule="evenodd" d="M21.1113 18.1814C18.0212 18.1814 14.9363 17.8171 11.8875 17.0898C11.7391 17.0437 11.6137 16.943 11.5368 16.8079C11.4599 16.6729 11.4372 16.5137 11.4733 16.3625C11.5095 16.2113 11.6017 16.0796 11.7314 15.9939C11.8611 15.9083 12.0185 15.8752 12.1717 15.9013C17.3246 17.1372 22.6777 17.292 27.8934 16.356C27.9643 16.3434 28.037 16.3434 28.1079 16.356C33.354 17.29 38.6428 17.1376 43.827 15.9013C43.9802 15.8752 44.1376 15.9083 44.2673 15.9939C44.397 16.0796 44.4892 16.2113 44.5254 16.3625C44.5615 16.5137 44.5388 16.6729 44.4619 16.8079C44.385 16.943 44.2596 17.0437 44.1112 17.0898C38.8318 18.3559 33.3483 18.5221 28.0019 17.5781C25.7269 17.9787 23.4213 18.1805 21.1113 18.1814ZM21.1113 27.1493C18.0212 27.1493 14.9363 26.785 11.8875 26.0577C11.7391 26.0117 11.6137 25.9109 11.5368 25.7759C11.4599 25.6409 11.4372 25.4816 11.4733 25.3305C11.5095 25.1793 11.6017 25.0476 11.7314 24.9619C11.8611 24.8763 12.0185 24.8431 12.1717 24.8692C17.3246 26.105 22.6777 26.2599 27.8934 25.324C27.9644 25.3114 28.0369 25.3114 28.1079 25.324C33.354 26.258 38.6428 26.1055 43.827 24.8692C43.9054 24.8495 43.9869 24.8456 44.0668 24.8576C44.1468 24.8697 44.2235 24.8974 44.2926 24.9393C44.3617 24.9812 44.4219 25.0364 44.4695 25.1017C44.5171 25.167 44.5513 25.2411 44.5701 25.3198C44.5889 25.3984 44.592 25.4799 44.579 25.5597C44.5661 25.6395 44.5374 25.7159 44.4947 25.7846C44.4521 25.8532 44.3962 25.9127 44.3303 25.9596C44.2645 26.0065 44.19 26.0398 44.1112 26.0577C38.8318 27.324 33.3483 27.4902 28.0019 26.546C25.7269 26.9467 23.4213 27.1485 21.1113 27.1493Z" fill="#0ABAB5" stroke="#0ABAB5" stroke-width="0.5"/>
<path fill-rule="evenodd" clip-rule="evenodd" d="M9.06096 17.4631C7.34281 17.4631 6.08456 17.0174 5.24486 16.1209C5.13419 16.0025 5.07508 15.845 5.08054 15.6831C5.08599 15.5211 5.15555 15.368 5.27393 15.2573C5.3923 15.1466 5.54979 15.0875 5.71174 15.093C5.8737 15.0984 6.02686 15.168 6.13752 15.2864C7.08832 16.3017 9.02866 16.5071 11.9043 15.8974C12.059 15.8736 12.2168 15.9099 12.3456 15.9989C12.4743 16.0879 12.564 16.2227 12.5964 16.3758C12.6288 16.5289 12.6014 16.6886 12.5198 16.8221C12.4382 16.9556 12.3085 17.0527 12.1575 17.0936C10.9948 17.3391 9.96395 17.4631 9.06096 17.4631ZM9.97558 26.2373C7.50816 26.2373 5.06659 25.5655 2.93376 24.2776C2.795 24.1936 2.69526 24.058 2.6565 23.9005C2.61774 23.7431 2.64312 23.5766 2.72706 23.4379C2.811 23.2991 2.94663 23.1994 3.1041 23.1606C3.26158 23.1219 3.428 23.1472 3.56676 23.2312C6.07551 24.7451 9.03934 25.3218 11.9327 24.8589C12.012 24.8462 12.0931 24.8492 12.1712 24.8678C12.2494 24.8864 12.3231 24.9202 12.3881 24.9673C12.4532 25.0144 12.5084 25.0738 12.5505 25.1422C12.5926 25.2106 12.6208 25.2866 12.6335 25.3659C12.6463 25.4453 12.6432 25.5263 12.6246 25.6044C12.6061 25.6826 12.5722 25.7563 12.5252 25.8214C12.4781 25.8864 12.4186 25.9416 12.3502 25.9837C12.2818 26.0258 12.2058 26.054 12.1265 26.0668C11.4121 26.1817 10.6926 26.2373 9.97558 26.2373ZM10.8579 35.0812C7.91768 35.0812 5.01879 34.3694 2.4041 32.9962C2.26054 32.9208 2.15281 32.7915 2.1046 32.6367C2.05639 32.4819 2.07165 32.3143 2.14703 32.1707C2.2224 32.0272 2.35172 31.9194 2.50653 31.8712C2.66133 31.823 2.82895 31.8383 2.97251 31.9136C5.74422 33.3704 8.86533 34.0309 11.9896 33.8217C12.0696 33.8159 12.1501 33.8261 12.2262 33.8516C12.3023 33.8771 12.3727 33.9174 12.4331 33.9703C12.4935 34.0231 12.5429 34.0875 12.5783 34.1595C12.6137 34.2316 12.6344 34.31 12.6394 34.3901C12.6448 34.4701 12.6344 34.5504 12.6088 34.6264C12.5831 34.7024 12.5427 34.7726 12.4899 34.8329C12.4372 34.8933 12.373 34.9426 12.3011 34.9781C12.2292 35.0137 12.151 35.0346 12.0709 35.0399C11.6679 35.0683 11.2635 35.0812 10.8579 35.0812ZM9.4653 44.2559C6.71239 44.2559 4.02149 43.442 1.68713 41.8711C1.56102 41.7772 1.47587 41.6384 1.44934 41.4834C1.4228 41.3284 1.45691 41.1691 1.54459 41.0386C1.63228 40.9081 1.76682 40.8163 1.92033 40.7822C2.07385 40.7482 2.23458 40.7745 2.36922 40.8558C3.75361 41.793 5.30968 42.4471 6.94788 42.7806C8.58607 43.114 10.274 43.1202 11.9146 42.7987C11.9935 42.7835 12.0746 42.784 12.1533 42.8002C12.232 42.8163 12.3067 42.8478 12.3733 42.8929C12.4398 42.9379 12.4968 42.9956 12.541 43.0627C12.5852 43.1298 12.6158 43.2049 12.631 43.2838C12.6461 43.3627 12.6456 43.4438 12.6295 43.5225C12.6133 43.6011 12.5818 43.6759 12.5368 43.7424C12.4917 43.8089 12.434 43.8659 12.367 43.9101C12.2999 43.9543 12.2248 43.9849 12.1459 44.0001C11.2532 44.1706 10.3554 44.2559 9.4653 44.2559Z" fill="#0ABAB5" stroke="#0ABAB5" stroke-width="0.5"/>
<path fill-rule="evenodd" clip-rule="evenodd" d="M9.24312 53.2497C6.60389 53.2497 3.99566 52.5508 1.68585 51.1957C1.57916 51.1334 1.49398 51.0401 1.44169 50.9282C0.426303 48.7605 0.412093 45.6304 1.40164 41.3622C0.658835 38.0163 0.871988 35.0063 2.03981 32.4045C1.45461 30.1955 1.65743 27.2566 2.64181 23.6601C2.77616 20.2884 3.62103 17.5109 5.15444 15.4026C6.98498 10.9471 8.88528 8.57137 11.1357 7.92286C11.2129 7.90064 11.2937 7.89384 11.3735 7.90284C11.4533 7.91185 11.5306 7.93649 11.6009 7.97536C11.6712 8.01423 11.7331 8.06656 11.7832 8.12937C11.8332 8.19217 11.8705 8.26423 11.8927 8.34142C11.9149 8.41861 11.9217 8.49942 11.9127 8.57924C11.9037 8.65906 11.8791 8.73632 11.8402 8.80662C11.8013 8.87691 11.749 8.93886 11.6862 8.98893C11.6234 9.03901 11.5513 9.07622 11.4741 9.09844C9.62679 9.62809 7.92156 11.8656 6.25767 15.9349C6.23828 15.9815 6.21357 16.0257 6.18404 16.0666C4.75785 17.9941 3.97757 20.5881 3.86002 23.7763C3.85913 23.8244 3.85219 23.8721 3.83935 23.9184C2.86659 27.4452 2.67669 30.2588 3.27481 32.2818C3.3168 32.4258 3.30486 32.5801 3.24122 32.7159C2.09407 35.1471 1.88737 38.0111 2.62372 41.2265C2.64484 41.3175 2.64484 41.412 2.62372 41.503C1.7091 45.3901 1.65872 48.3278 2.47258 50.2384C5.33332 51.8639 8.68357 52.4055 11.9108 51.7641C12.0701 51.7325 12.2354 51.7656 12.3703 51.856C12.5053 51.9463 12.5988 52.0866 12.6303 52.2459C12.6618 52.4052 12.6288 52.5705 12.5384 52.7055C12.4481 52.8404 12.3078 52.934 12.1485 52.9655C11.1848 53.1554 10.2107 53.2497 9.24182 53.2497H9.24312Z" fill="#0ABAB5" stroke="#0ABAB5" stroke-width="0.5"/>
<path fill-rule="evenodd" clip-rule="evenodd" d="M21.1112 36.116C18.0212 36.116 14.9363 35.7517 11.8875 35.0244C11.8087 35.0065 11.7342 34.9731 11.6684 34.9262C11.6025 34.8793 11.5466 34.8198 11.504 34.7512C11.4613 34.6826 11.4326 34.6061 11.4197 34.5264C11.4067 34.4466 11.4098 34.365 11.4286 34.2864C11.4474 34.2078 11.4816 34.1337 11.5292 34.0684C11.5768 34.0031 11.637 33.9479 11.7061 33.906C11.7752 33.8641 11.8519 33.8363 11.9319 33.8243C12.0118 33.8123 12.0933 33.8162 12.1717 33.8359C17.3245 35.0721 22.6776 35.2274 27.8934 34.2919C27.9643 34.2792 28.0369 34.2792 28.1079 34.2919C33.354 35.2259 38.6428 35.0735 43.827 33.8372C43.9054 33.8175 43.9869 33.8135 44.0668 33.8256C44.1467 33.8376 44.2235 33.8654 44.2926 33.9073C44.3617 33.9492 44.4218 34.0044 44.4695 34.0697C44.5171 34.135 44.5513 34.2091 44.5701 34.2877C44.5889 34.3663 44.5919 34.4479 44.579 34.5277C44.5661 34.6074 44.5374 34.6839 44.4947 34.7525C44.452 34.8211 44.3962 34.8806 44.3303 34.9275C44.2645 34.9744 44.19 35.0078 44.1112 35.0257C38.8319 36.2925 33.3483 36.4587 28.0019 35.514C25.7268 35.9141 23.4213 36.1156 21.1112 36.116ZM21.1112 45.0839C18.0212 45.0839 14.9363 44.7196 11.8875 43.9923C11.8087 43.9744 11.7342 43.9411 11.6684 43.8942C11.6025 43.8473 11.5466 43.7878 11.504 43.7192C11.4613 43.6505 11.4326 43.5741 11.4197 43.4943C11.4067 43.4145 11.4098 43.333 11.4286 43.2544C11.4474 43.1758 11.4816 43.1016 11.5292 43.0363C11.5768 42.9711 11.637 42.9158 11.7061 42.8739C11.7752 42.832 11.8519 42.8043 11.9319 42.7922C12.0118 42.7802 12.0933 42.7842 12.1717 42.8038C17.3245 44.0405 22.6779 44.1949 27.8934 43.2573C27.9643 43.2446 28.0369 43.2446 28.1079 43.2573C33.354 44.1939 38.6428 44.0414 43.827 42.8038C43.9054 42.7842 43.9869 42.7802 44.0668 42.7922C44.1467 42.8043 44.2235 42.832 44.2926 42.8739C44.3617 42.9158 44.4218 42.9711 44.4695 43.0363C44.5171 43.1016 44.5513 43.1758 44.5701 43.2544C44.5889 43.333 44.5919 43.4145 44.579 43.4943C44.5661 43.5741 44.5374 43.6505 44.4947 43.7192C44.452 43.7878 44.3962 43.8473 44.3303 43.8942C44.2645 43.9411 44.19 43.9744 44.1112 43.9923C38.8318 45.2585 33.3483 45.4247 28.0019 44.4807C25.7269 44.8812 23.4213 45.0831 21.1112 45.0839Z" fill="#0ABAB5" stroke="#0ABAB5" stroke-width="0.5"/>
<path fill-rule="evenodd" clip-rule="evenodd" d="M28.0006 53.4396C27.8386 53.4396 27.6831 53.3752 27.5686 53.2606C27.454 53.146 27.3896 52.9906 27.3896 52.8285V3.77089C27.3896 3.60883 27.454 3.45341 27.5686 3.33882C27.6831 3.22423 27.8386 3.15985 28.0006 3.15985C28.1627 3.15985 28.3181 3.22423 28.4327 3.33882C28.5473 3.45341 28.6117 3.60883 28.6117 3.77089V52.8285C28.6117 52.9906 28.5473 53.146 28.4327 53.2606C28.3181 53.3752 28.1627 53.4396 28.0006 53.4396ZM46.9403 17.4631C46.036 17.4631 45.0051 17.3404 43.8425 17.0924C43.7624 17.0772 43.6863 17.0463 43.6184 17.0013C43.5505 16.9563 43.4923 16.8982 43.4471 16.8304C43.402 16.7626 43.3709 16.6865 43.3556 16.6065C43.3404 16.5265 43.3412 16.4443 43.3582 16.3646C43.3752 16.285 43.4079 16.2095 43.4544 16.1427C43.501 16.0759 43.5604 16.019 43.6292 15.9755C43.6981 15.932 43.7749 15.9026 43.8552 15.8892C43.9355 15.8758 44.0177 15.8786 44.097 15.8974C46.9726 16.5071 48.9129 16.3017 49.8624 15.2864C49.9173 15.2277 49.9832 15.1805 50.0563 15.1474C50.1295 15.1142 50.2084 15.0958 50.2887 15.0932C50.3689 15.0905 50.4489 15.1037 50.5241 15.132C50.5992 15.1603 50.6681 15.2031 50.7267 15.2579C50.7853 15.3128 50.8325 15.3787 50.8657 15.4518C50.8988 15.525 50.9172 15.6039 50.9199 15.6842C50.9225 15.7644 50.9093 15.8444 50.8811 15.9196C50.8528 15.9947 50.81 16.0636 50.7551 16.1222C49.9154 17.0174 48.6572 17.4631 46.9403 17.4631ZM46.0244 26.2373C45.3074 26.2373 44.5879 26.1817 43.8735 26.0668C43.7219 26.0321 43.5892 25.9411 43.5023 25.8122C43.4153 25.6834 43.3807 25.5262 43.4053 25.3727C43.43 25.2192 43.5121 25.0809 43.635 24.9857C43.7579 24.8905 43.9125 24.8456 44.0672 24.8602C46.9608 25.3229 49.9247 24.7458 52.4332 23.2312C52.572 23.1472 52.7384 23.1219 52.8959 23.1606C53.0533 23.1994 53.189 23.2991 53.2729 23.4379C53.3568 23.5766 53.3822 23.7431 53.3435 23.9005C53.3047 24.058 53.205 24.1936 53.0662 24.2776C50.9412 25.5598 48.5063 26.2374 46.0244 26.2373ZM45.1434 35.0812C44.7377 35.0812 44.3347 35.0683 43.929 35.0399C43.8489 35.0346 43.7706 35.0136 43.6986 34.978C43.6266 34.9424 43.5624 34.893 43.5095 34.8325C43.4567 34.772 43.4164 34.7016 43.3908 34.6255C43.3653 34.5494 43.355 34.4689 43.3606 34.3888C43.3826 34.0529 43.6707 33.7959 44.0104 33.8204C47.1354 34.0284 50.2539 33.3708 53.0275 31.9136C53.171 31.8383 53.3386 31.823 53.4934 31.8712C53.6482 31.9194 53.7776 32.0272 53.8529 32.1707C53.9283 32.3143 53.9436 32.4819 53.8954 32.6367C53.8472 32.7915 53.7394 32.9208 53.5959 32.9962C50.9889 34.3657 48.0882 35.0812 45.1434 35.0812ZM46.5347 44.2559C45.6446 44.2559 44.7468 44.1706 43.8541 43.9988C43.6948 43.968 43.5542 43.8751 43.4634 43.7407C43.3725 43.6062 43.3388 43.4412 43.3697 43.2818C43.4005 43.1225 43.4934 42.982 43.6278 42.8911C43.7623 42.8003 43.9273 42.7666 44.0866 42.7974C45.7269 43.1192 47.4147 43.1133 49.0527 42.7801C50.6907 42.4468 52.2466 41.7928 53.6307 40.8558C53.6974 40.8109 53.7723 40.7796 53.851 40.7636C53.9298 40.7477 54.0109 40.7474 54.0898 40.7629C54.1687 40.7783 54.2438 40.8091 54.3107 40.8535C54.3777 40.8979 54.4353 40.9551 54.4801 41.0218C54.525 41.0884 54.5563 41.1633 54.5722 41.2421C54.5882 41.3208 54.5885 41.402 54.573 41.4808C54.5576 41.5597 54.5268 41.6348 54.4824 41.7017C54.438 41.7687 54.3808 41.8263 54.3141 41.8711C52.0171 43.4247 49.3077 44.2553 46.5347 44.2559Z" fill="#0ABAB5" stroke="#0ABAB5" stroke-width="0.5"/>
<path fill-rule="evenodd" clip-rule="evenodd" d="M46.7569 53.251C45.788 53.251 44.8139 53.1567 43.8502 52.9668C43.7713 52.9511 43.6963 52.92 43.6294 52.8753C43.5626 52.8306 43.5051 52.7732 43.4605 52.7063C43.4158 52.6395 43.3847 52.5644 43.369 52.4855C43.3533 52.4067 43.3533 52.3255 43.369 52.2466C43.3847 52.1677 43.4158 52.0927 43.4605 52.0258C43.5052 51.9589 43.5626 51.9015 43.6294 51.8568C43.6963 51.8121 43.7713 51.7811 43.8502 51.7654C43.9291 51.7497 44.0103 51.7497 44.0892 51.7654C47.3227 52.4061 50.666 51.8648 53.5274 50.2384C54.3413 48.3265 54.2922 45.3901 53.3763 41.503C53.3546 41.4121 53.3546 41.3174 53.3763 41.2265C54.1126 38.0111 53.9059 35.1471 52.7588 32.7159C52.6952 32.5801 52.6833 32.4258 52.7252 32.2818C53.3246 30.2601 53.1347 27.4452 52.1606 23.9172C52.148 23.8708 52.1411 23.8231 52.14 23.7751C52.0224 20.5881 51.2421 17.9941 49.8172 16.0666C49.7869 16.026 49.7618 15.9817 49.7423 15.9349C48.0771 11.8578 46.3706 9.62165 44.5297 9.09974C44.3809 9.04947 44.257 8.94388 44.1838 8.80484C44.1106 8.6658 44.0937 8.50393 44.1365 8.35275C44.1793 8.20156 44.2786 8.07262 44.4138 7.9926C44.5491 7.91259 44.7099 7.88763 44.863 7.92288C47.1095 8.56105 49.0124 10.938 50.8455 15.4026C52.379 17.5083 53.2251 20.2884 53.3582 23.6601C54.3426 27.2566 54.5454 30.1968 53.9602 32.4045C55.1267 35.005 55.3411 38.0176 54.5983 41.3622C55.5879 45.6304 55.5737 48.7605 54.5583 50.9282C54.5057 51.0404 54.4201 51.1337 54.3128 51.1957C52.0219 52.5408 49.4135 53.2512 46.7569 53.251ZM28.0006 8.82846C24.5338 8.83462 21.1219 7.96264 18.0832 6.29387C17.9424 6.21609 17.8378 6.08603 17.7922 5.93181C17.7465 5.77759 17.7633 5.61159 17.839 5.46967L19.8207 1.7763C19.8992 1.63681 20.0292 1.53368 20.1829 1.48907C20.3366 1.44446 20.5017 1.46194 20.6427 1.53775C20.7836 1.61356 20.8892 1.74164 20.9367 1.89447C20.9843 2.0473 20.9699 2.21267 20.8968 2.35504L19.2071 5.50714C24.6845 8.30655 31.3155 8.30655 36.7929 5.50714L35.1006 2.35504C35.0238 2.21183 35.0071 2.04399 35.0541 1.88846C35.1011 1.73292 35.208 1.60243 35.3512 1.52568C35.4944 1.44894 35.6623 1.43222 35.8178 1.47922C35.9733 1.52622 36.1038 1.63309 36.1806 1.7763L38.161 5.47096C38.2363 5.61275 38.2529 5.77844 38.2072 5.93236C38.1615 6.08627 38.0572 6.21609 37.9168 6.29387C34.8785 7.96259 31.467 8.83457 28.0006 8.82846Z" fill="#0ABAB5" stroke="#0ABAB5" stroke-width="0.5"/>
<path fill-rule="evenodd" clip-rule="evenodd" d="M22.0672 2.11604C25.8986 3.51569 30.1014 3.51569 33.9328 2.11604C30.067 0.926482 25.933 0.926482 22.0672 2.11604ZM27.9993 4.38968C25.3046 4.38968 22.6098 3.79931 20.0984 2.61857C19.9902 2.56782 19.8992 2.48641 19.8367 2.38444C19.7743 2.28247 19.7431 2.16442 19.7471 2.04491C19.7511 1.9254 19.79 1.80969 19.8592 1.71211C19.9283 1.61453 20.0245 1.53938 20.1359 1.49596C25.1888 -0.499385 30.8112 -0.499385 35.8641 1.49596C35.9759 1.53892 36.0727 1.61389 36.1422 1.71151C36.2117 1.80913 36.2509 1.92507 36.2549 2.04484C36.2589 2.16462 36.2275 2.28291 36.1647 2.38495C36.1018 2.48699 36.0103 2.56824 35.9015 2.61857C33.4299 3.7832 30.7316 4.38883 27.9993 4.38968ZM21.1112 54.0519C18.0212 54.0519 14.9362 53.6876 11.8875 52.9603C11.7902 52.9368 11.7002 52.8898 11.6254 52.8234C11.5506 52.7569 11.4933 52.673 11.4586 52.5792C10.3572 49.6226 10.3297 46.3729 11.3811 43.3981C10.3561 40.4967 10.3561 37.3316 11.3811 34.4301C10.3564 31.5295 10.3564 28.3654 11.3811 25.4648C10.3398 22.5181 10.3562 19.3009 11.4276 16.365C11.6198 13.7776 11.3783 11.1762 10.7132 8.66826C10.6797 8.53982 10.6886 8.40397 10.7387 8.28103C10.7887 8.15809 10.8773 8.05465 10.991 7.98616C11.5297 7.66579 12.1523 7.46039 13.0153 7.17747C14.1508 6.80542 15.7036 6.29773 18.1271 5.20096C18.2003 5.16787 18.2793 5.14954 18.3596 5.14699C18.4399 5.14444 18.5199 5.15773 18.595 5.1861C18.6702 5.21447 18.739 5.25736 18.7976 5.31233C18.8562 5.3673 18.9034 5.43327 18.9364 5.50648C18.9695 5.57968 18.9879 5.65868 18.9904 5.73897C18.993 5.81926 18.9797 5.89927 18.9513 5.97442C18.9229 6.04957 18.88 6.1184 18.8251 6.17698C18.7701 6.23556 18.7041 6.28273 18.6309 6.31581C16.1467 7.43972 14.5577 7.95904 13.3964 8.34013C12.815 8.53003 12.3758 8.67342 12.0167 8.83103C12.6316 11.3566 12.8409 13.9493 12.6394 16.5433C12.6352 16.5999 12.623 16.6555 12.6032 16.7087C11.5782 19.4632 11.5782 22.4945 12.6032 25.249C12.6549 25.3873 12.6549 25.5384 12.6032 25.6753C11.5779 28.4302 11.5779 31.4621 12.6032 34.217C12.6549 34.3552 12.6549 34.5064 12.6032 34.6433C11.5779 37.3982 11.5779 40.43 12.6032 43.185C12.6549 43.3232 12.6549 43.4743 12.6032 43.6113C11.6162 46.2613 11.5774 49.1713 12.4934 51.8467C17.5478 53.0133 22.7865 53.1421 27.8921 52.2252C27.9635 52.2125 28.0365 52.2125 28.1079 52.2252C33.2135 53.142 38.4521 53.0133 43.5066 51.8467C44.4225 49.1718 44.3837 46.2621 43.3968 43.6125C43.346 43.475 43.346 43.3238 43.3968 43.1862C44.4221 40.4313 44.4221 37.3995 43.3968 34.6446C43.346 34.507 43.346 34.3558 43.3968 34.2183C44.4221 31.4634 44.4221 28.4315 43.3968 25.6766C43.346 25.5391 43.346 25.3879 43.3968 25.2503C44.4222 22.4954 44.4222 19.4636 43.3968 16.7087C43.3771 16.6555 43.3649 16.5999 43.3606 16.5433C43.1591 13.9558 43.3693 11.3527 43.9833 8.83103C43.6255 8.67342 43.1849 8.53003 42.6036 8.34013C41.4422 7.95904 39.852 7.43842 37.3691 6.31581C37.2959 6.28273 37.2299 6.23556 37.1749 6.17698C37.1199 6.1184 37.0771 6.04957 37.0487 5.97442C37.0203 5.89927 37.007 5.81926 37.0096 5.73897C37.0121 5.65868 37.0305 5.57968 37.0635 5.50648C37.0966 5.43327 37.1438 5.3673 37.2024 5.31233C37.261 5.25736 37.3298 5.21447 37.4049 5.1861C37.4801 5.15773 37.5601 5.14444 37.6404 5.14699C37.7207 5.14954 37.7997 5.16787 37.8729 5.20096C40.2964 6.29773 41.8492 6.80542 42.9847 7.17747C43.8476 7.46039 44.4703 7.66579 45.009 7.98616C45.2415 8.12568 45.3552 8.40343 45.2868 8.66826C44.6215 11.1809 44.3825 13.771 44.5724 16.365C45.6446 19.3001 45.6601 22.5194 44.6202 25.4635C45.6454 28.3644 45.6454 31.5292 44.6202 34.4301C45.6454 37.3316 45.6454 40.4967 44.6202 43.3981C45.6704 46.3693 45.6446 49.6222 44.5427 52.5805C44.5076 52.6745 44.4499 52.7583 44.3746 52.8246C44.2993 52.8908 44.2088 52.9375 44.1112 52.9603C38.8318 54.2265 33.3483 54.3927 28.0019 53.4486C25.7269 53.8492 23.4213 54.0511 21.1112 54.0519ZM9.02995 56.0013C8.94986 56.0013 8.86847 55.9935 8.7858 55.9806L3.39882 55.0557C2.5307 54.9058 1.9132 54.0093 1.99588 53.0146L2.16124 51.0406C2.18569 50.8883 2.26676 50.7508 2.38822 50.6556C2.50968 50.5605 2.66259 50.5147 2.81636 50.5274C2.97013 50.5402 3.11342 50.6105 3.21758 50.7243C3.32174 50.8382 3.37909 50.9871 3.37815 51.1414L3.21538 53.1179C3.18308 53.4861 3.40011 53.8155 3.60422 53.8504L8.99249 54.7753C9.01574 54.7792 9.0855 54.7908 9.17335 54.7237C9.23503 54.6675 9.28495 54.5996 9.32021 54.524C9.35547 54.4484 9.37537 54.3665 9.37875 54.2832L9.52473 52.5598C9.53843 52.3983 9.61575 52.2488 9.73967 52.1443C9.86359 52.0397 10.024 51.9887 10.1855 52.0024C10.347 52.0161 10.4965 52.0934 10.6011 52.2174C10.7056 52.3413 10.7566 52.5016 10.7429 52.6632L10.5957 54.3865C10.553 54.9162 10.3063 55.3941 9.92262 55.6913C9.65908 55.8941 9.34775 56.0013 9.02995 56.0013ZM46.9713 56.0013C46.6522 56.0013 46.3409 55.8941 46.0774 55.69C45.6937 55.3916 45.4469 54.9149 45.4043 54.3852L45.2622 52.6632C45.2488 52.5016 45.3002 52.3414 45.405 52.2177C45.5098 52.0941 45.6594 52.0171 45.8209 52.0037C45.9825 51.9903 46.1427 52.0417 46.2664 52.1465C46.3901 52.2513 46.4671 52.4009 46.4804 52.5624L46.6225 54.2832C46.6258 54.3662 46.6456 54.4478 46.6806 54.5232C46.7156 54.5986 46.7653 54.6663 46.8266 54.7224C46.9145 54.7908 46.9842 54.7792 47.0075 54.7753L52.3958 53.8504C52.6012 53.8155 52.8169 53.4861 52.7846 53.1179L52.6218 51.1414C52.6152 51.0614 52.6244 50.9809 52.6489 50.9045C52.6734 50.828 52.7127 50.7572 52.7646 50.6959C52.8165 50.6347 52.8799 50.5843 52.9513 50.5476C53.0227 50.5108 53.1006 50.4885 53.1805 50.4819C53.2605 50.4753 53.341 50.4845 53.4175 50.509C53.4939 50.5335 53.5648 50.5728 53.626 50.6247C53.6872 50.6766 53.7377 50.74 53.7744 50.8114C53.8111 50.8827 53.8334 50.9606 53.84 51.0406L54.0041 53.0159C54.0868 54.0106 53.4706 54.9071 52.6025 55.0557L47.2142 55.9806C47.1328 55.9935 47.0501 56 46.97 56L46.9713 56.0013Z" fill="#0ABAB5" stroke="#0ABAB5" stroke-width="0.5"/>
</g>
<defs>
<clipPath id="clip0_15_726">
<rect width="56" height="56" fill="white"/>
</clipPath>
</defs>
</svg>
