<svg width="56" height="56" viewBox="0 0 56 56" fill="none" xmlns="http://www.w3.org/2000/svg">
<path d="M31.3714 25.0937C31.2159 25.0601 31.0576 25.0406 30.8986 25.0355C30.8917 24.948 30.8815 24.861 30.8658 24.7739C30.7901 24.3565 30.6144 23.9638 30.3538 23.6292C30.0931 23.2946 29.7553 23.0281 29.3692 22.8526L27.3363 21.9286C26.9367 21.7458 26.4975 21.6668 26.0592 21.6987C25.621 21.7306 25.1978 21.8725 24.8289 22.1112C24.6952 22.1975 24.5695 22.2956 24.4534 22.4045C24.098 22.0983 23.6665 21.8938 23.2045 21.8125C22.7425 21.7311 22.2671 21.776 21.8284 21.9424L19.7376 22.7265C19.3258 22.8798 18.9593 23.1345 18.672 23.467C18.3847 23.7994 18.1859 24.199 18.0938 24.6286C18.0602 24.7841 18.0408 24.9424 18.0356 25.1014C17.5678 25.1362 17.118 25.2967 16.7338 25.5659C16.3496 25.8351 16.0452 26.203 15.8527 26.6308L14.9286 28.6638C14.746 29.0634 14.6669 29.5026 14.6989 29.9408C14.7308 30.3791 14.8726 30.8022 15.1113 31.1711C15.1975 31.3048 15.2957 31.4305 15.4046 31.5466C15.3472 31.6131 15.2932 31.6824 15.2428 31.7544C15.0013 32.1031 14.8478 32.5051 14.7955 32.9261C14.7431 33.347 14.7936 33.7744 14.9425 34.1716L15.7266 36.2624C15.88 36.6742 16.1346 37.0407 16.4671 37.328C16.7996 37.6153 17.1991 37.8141 17.6288 37.9062C17.7843 37.9397 17.9425 37.959 18.1015 37.9641C18.1363 38.4319 18.2968 38.8817 18.566 39.266C18.8352 39.6502 19.2031 39.9547 19.631 40.1473L21.6638 41.0713C22.1374 41.2866 22.6643 41.3563 23.1777 41.2716C23.691 41.1868 24.1675 40.9515 24.5468 40.5954C24.9031 40.9 25.3346 41.1035 25.7962 41.1848C26.2579 41.2661 26.7329 41.2221 27.1718 41.0575L29.2626 40.2734C29.6744 40.12 30.0409 39.8654 30.3282 39.5329C30.6155 39.2004 30.8144 38.8009 30.9064 38.3713C30.94 38.2157 30.9595 38.0575 30.9646 37.8985C31.4324 37.8635 31.8821 37.703 32.2663 37.4338C32.6505 37.1646 32.9549 36.7968 33.1475 36.369L34.0716 34.3361C34.2543 33.9365 34.3333 33.4973 34.3014 33.059C34.2695 32.6208 34.1276 32.1977 33.889 31.8288C33.8027 31.695 33.7045 31.5694 33.5956 31.4533C33.653 31.3868 33.707 31.3174 33.7574 31.2455C33.999 30.8968 34.1525 30.4948 34.2048 30.0738C34.2571 29.6529 34.2067 29.2255 34.0578 28.8283L33.2736 26.7375C33.1203 26.3257 32.8656 25.9592 32.5331 25.6719C32.2006 25.3846 31.8011 25.1857 31.3714 25.0937ZM30.197 27.0405C30.3006 26.937 30.4284 26.8612 30.5689 26.8199C30.7093 26.7786 30.8579 26.7732 31.001 26.8041C31.144 26.8351 31.2771 26.9015 31.3878 26.9973C31.4986 27.093 31.5836 27.215 31.635 27.3521L32.4188 29.4426C32.4684 29.575 32.4853 29.7175 32.4679 29.8578C32.4504 29.9981 32.3993 30.1321 32.3188 30.2483C32.2382 30.3645 32.1307 30.4595 32.0055 30.5251C31.8802 30.5907 31.7409 30.625 31.5996 30.625H27.8892C27.8071 30.3084 27.6808 30.0049 27.514 29.7235L30.197 27.0405ZM25.375 24.4002V24.3182C25.375 24.1718 25.4117 24.0277 25.4819 23.8992C25.552 23.7706 25.6532 23.6617 25.7763 23.5825C25.8994 23.5032 26.0405 23.4561 26.1865 23.4455C26.3325 23.4348 26.4789 23.461 26.6122 23.5216L28.6453 24.4453C28.774 24.5038 28.8866 24.5926 28.9735 24.7042C29.0604 24.8157 29.1189 24.9466 29.1441 25.0857C29.1693 25.2248 29.1605 25.368 29.1183 25.5029C29.0761 25.6378 29.0019 25.7605 28.9019 25.8605L26.2769 28.4855C25.9954 28.3188 25.6918 28.1927 25.375 28.1108V24.4002ZM19.804 24.9991C19.8337 24.8554 19.8996 24.7217 19.9955 24.6107C20.0914 24.4997 20.214 24.415 20.3519 24.3647L22.4428 23.5807C22.5752 23.531 22.7177 23.5142 22.858 23.5317C22.9983 23.5491 23.1323 23.6003 23.2485 23.6809C23.3647 23.7614 23.4597 23.869 23.5253 23.9942C23.5908 24.1195 23.6251 24.2588 23.625 24.4002V28.1108C23.3084 28.1929 23.0049 28.3192 22.7236 28.4861L20.0986 25.8611L20.0407 25.8032C19.936 25.7004 19.8593 25.5726 19.8179 25.4319C19.7764 25.2911 19.7717 25.1422 19.804 24.9991ZM16.5218 29.388L17.4453 27.3547C17.5038 27.226 17.5926 27.1135 17.7041 27.0266C17.8155 26.9397 17.9464 26.8811 18.0854 26.8559C18.2245 26.8306 18.3676 26.8394 18.5025 26.8815C18.6374 26.9236 18.7601 26.9977 18.8601 27.0975L21.4851 29.7225C21.3185 30.0043 21.1925 30.3081 21.1108 30.625H17.3183C17.1719 30.625 17.0279 30.5882 16.8994 30.5181C16.7708 30.448 16.662 30.3468 16.5827 30.2237C16.5034 30.1006 16.4563 29.9596 16.4457 29.8136C16.435 29.6676 16.4612 29.5212 16.5218 29.388ZM18.803 35.9595C18.6995 36.063 18.5716 36.1389 18.4312 36.1802C18.2907 36.2215 18.1422 36.2269 17.9991 36.1959C17.856 36.1649 17.723 36.0985 17.6122 36.0028C17.5014 35.9071 17.4165 35.7851 17.3651 35.648L16.5813 33.5573C16.5316 33.4249 16.5148 33.2825 16.5322 33.1422C16.5496 33.0019 16.6008 32.8679 16.6813 32.7517C16.7618 32.6354 16.8693 32.5405 16.9946 32.4749C17.1198 32.4093 17.2591 32.375 17.4005 32.375H21.111C21.1931 32.6916 21.3195 32.9951 21.4863 33.2765L18.803 35.9595ZM23.625 38.5997V38.6818C23.625 38.8282 23.5883 38.9723 23.5182 39.1008C23.4481 39.2293 23.3468 39.3382 23.2237 39.4175C23.1006 39.4968 22.9596 39.5439 22.8136 39.5545C22.6675 39.5651 22.5212 39.5389 22.3879 39.4783L20.3547 38.5547C20.226 38.4962 20.1134 38.4073 20.0266 38.2958C19.9397 38.1843 19.8811 38.0534 19.8559 37.9143C19.8307 37.7751 19.8396 37.632 19.8817 37.4971C19.9239 37.3621 19.9982 37.2394 20.0981 37.1395L22.7231 34.5145C23.0046 34.6811 23.3083 34.8073 23.625 34.8892V38.5997ZM24.5 33.25C24.1539 33.25 23.8156 33.1474 23.5278 32.9551C23.24 32.7628 23.0157 32.4895 22.8832 32.1697C22.7508 31.8499 22.7161 31.498 22.7836 31.1586C22.8512 30.8191 23.0178 30.5073 23.2626 30.2625C23.5073 30.0178 23.8191 29.8511 24.1586 29.7836C24.4981 29.7161 24.8499 29.7507 25.1697 29.8832C25.4895 30.0157 25.7628 30.24 25.9551 30.5277C26.1474 30.8155 26.25 31.1539 26.25 31.5C26.2495 31.9639 26.0649 32.4087 25.7368 32.7368C25.4088 33.0649 24.964 33.2494 24.5 33.25ZM29.196 38.0009C29.1664 38.1446 29.1004 38.2783 29.0045 38.3893C28.9087 38.5003 28.786 38.585 28.6482 38.6353L26.5574 39.4187C26.425 39.4684 26.2825 39.4852 26.1422 39.4678C26.0019 39.4504 25.8679 39.3992 25.7517 39.3187C25.6355 39.2382 25.5405 39.1307 25.4749 39.0054C25.4093 38.8802 25.375 38.7409 25.375 38.5995V34.8892C25.6916 34.8071 25.9951 34.6807 26.2765 34.5139L28.9015 37.1389L28.9026 37.1399L28.9595 37.1969C29.0642 37.2996 29.1408 37.4274 29.1823 37.5682C29.2237 37.7089 29.2284 37.8578 29.196 38.0009ZM32.4783 33.612L31.5547 35.6453C31.4962 35.774 31.4075 35.8865 31.296 35.9734C31.1845 36.0603 31.0537 36.1188 30.9146 36.1441C30.7756 36.1694 30.6325 36.1606 30.4976 36.1185C30.3627 36.0764 30.24 36.0023 30.1399 35.9024L27.5149 33.2774C27.6815 32.9957 27.8075 32.6919 27.8892 32.375H31.6817C31.8281 32.375 31.9722 32.4117 32.1007 32.4818C32.2292 32.5519 32.3381 32.6532 32.4173 32.7763C32.4966 32.8993 32.5437 33.0404 32.5544 33.1864C32.565 33.3324 32.5388 33.4787 32.4783 33.612Z" fill="#0ABAB5"/>
<path d="M53.5872 22.7761C52.4988 22.504 51.092 21.9158 50.5712 20.6584C50.1048 19.5318 50.426 17.9906 51.5009 16.2002C52.879 13.9033 53.2061 10.6579 52.3796 8.35799L52.7569 7.98064C53.2484 7.48798 53.5245 6.82047 53.5245 6.12455C53.5245 5.42863 53.2484 4.76112 52.7569 4.26846L52.6068 4.11828C52.1141 3.62672 51.4465 3.35066 50.7505 3.35066C50.0546 3.35066 49.387 3.62672 48.8943 4.11828L47.77 5.24277C46.3857 5.1941 45.4075 4.85777 44.9299 4.26124C44.433 3.6401 44.5909 2.87677 44.6018 2.82842C44.6546 2.6039 44.6165 2.36763 44.496 2.171C44.3755 1.97437 44.1822 1.83328 43.9582 1.77842C43.7341 1.72355 43.4975 1.75935 43.2998 1.87803C43.102 1.9967 42.9591 2.18866 42.9021 2.41214C42.7548 3.00146 42.7232 4.27786 43.5393 5.32327C44.1234 6.07128 45.014 6.57014 46.1955 6.81733L45.7572 7.2556C45.7374 7.27558 45.7185 7.2965 45.7006 7.31827L45.6982 7.32122L45.6967 7.32308L39.7074 14.595C36.4306 11.6368 32.3619 9.69904 28 9.01927V6.99999H29.9005C30.1069 7.5838 30.5131 8.07585 31.0472 8.38916C31.5813 8.70248 32.209 8.8169 32.8193 8.71218C33.4296 8.60747 33.9832 8.29037 34.3823 7.81694C34.7815 7.3435 35.0004 6.74421 35.0004 6.12499C35.0004 5.50576 34.7815 4.90647 34.3823 4.43303C33.9832 3.9596 33.4296 3.6425 32.8193 3.53779C32.209 3.43308 31.5813 3.54749 31.0472 3.86081C30.5131 4.17413 30.1069 4.66618 29.9005 5.24999H28V4.37499C28 4.14292 27.9078 3.92036 27.7437 3.75627C27.5796 3.59217 27.3571 3.49999 27.125 3.49999C26.8929 3.49999 26.6704 3.59217 26.5063 3.75627C26.3422 3.92036 26.25 4.14292 26.25 4.37499V5.24999H22.75V4.37499C22.75 4.14292 22.6578 3.92036 22.4937 3.75627C22.3296 3.59217 22.1071 3.49999 21.875 3.49999C21.6429 3.49999 21.4204 3.59217 21.2563 3.75627C21.0922 3.92036 21 4.14292 21 4.37499V5.24999H19.25C19.25 5.01792 19.1578 4.79536 18.9937 4.63127C18.8296 4.46717 18.6071 4.37499 18.375 4.37499C18.1429 4.37499 17.9204 4.46717 17.7563 4.63127C17.5922 4.79536 17.5 5.01792 17.5 5.24999H15.75C15.5179 5.24999 15.2954 5.34217 15.1313 5.50627C14.9672 5.67036 14.875 5.89292 14.875 6.12499C14.875 6.35705 14.9672 6.57961 15.1313 6.74371C15.2954 6.9078 15.5179 6.99999 15.75 6.99999H17.5C17.5 7.23205 17.5922 7.45461 17.7563 7.61871C17.9204 7.7828 18.1429 7.87499 18.375 7.87499C18.6071 7.87499 18.8296 7.7828 18.9937 7.61871C19.1578 7.45461 19.25 7.23205 19.25 6.99999H21V9.01927C10.1114 10.7078 1.75 20.1457 1.75 31.5C1.75 44.0443 11.9557 54.25 24.5 54.25C37.0443 54.25 47.25 44.0443 47.25 31.5C47.2549 26.3054 45.4732 21.2671 42.204 17.2303L49.5516 11.1793L49.5531 11.178L49.5563 11.1754C49.5782 11.1577 49.5987 11.139 49.6188 11.1188L50.9625 9.77516C51.2994 11.5066 50.9552 13.7077 50 15.2999C48.6095 17.6175 48.2579 19.6457 48.9548 21.3282C49.5877 22.8562 51.0429 23.9439 53.1631 24.474C53.3876 24.5284 53.6245 24.4918 53.8221 24.3723C54.0198 24.2527 54.1621 24.0599 54.2181 23.8358C54.2741 23.6117 54.2393 23.3745 54.1212 23.1761C54.003 22.9776 53.8112 22.8339 53.5875 22.7762L53.5872 22.7761ZM32.375 5.24999C32.5481 5.24999 32.7172 5.30131 32.8611 5.39745C33.005 5.4936 33.1172 5.63025 33.1834 5.79014C33.2496 5.95002 33.2669 6.12596 33.2332 6.29569C33.1994 6.46542 33.1161 6.62133 32.9937 6.74371C32.8713 6.86608 32.7154 6.94941 32.5457 6.98317C32.376 7.01694 32.2 6.99961 32.0402 6.93338C31.8803 6.86716 31.7436 6.755 31.6475 6.61111C31.5513 6.46722 31.5 6.29805 31.5 6.12499C31.5003 5.893 31.5925 5.67059 31.7566 5.50656C31.9206 5.34252 32.143 5.25025 32.375 5.24999ZM22.75 6.99999H26.25V8.8166C25.6724 8.77219 25.0891 8.74999 24.5 8.74999C23.9109 8.74999 23.3276 8.77219 22.75 8.8166V6.99999ZM45.5 31.5C45.5 43.0794 36.0794 52.5 24.5 52.5C12.9206 52.5 3.5 43.0794 3.5 31.5C3.5 19.9206 12.9206 10.5 24.5 10.5C29.7127 10.4957 34.7392 12.4379 38.5947 15.9461L37.4812 17.2983C33.9398 14.048 29.3069 12.2462 24.5 12.25C13.8855 12.25 5.25 20.8855 5.25 31.5C5.25 42.1145 13.8855 50.75 24.5 50.75C35.1145 50.75 43.75 42.1145 43.75 31.5C43.7541 27.1172 42.2552 22.8655 39.5034 19.4542L40.8537 18.3422C43.8642 22.0663 45.5044 26.7113 45.5 31.5ZM33.5063 23.3687C33.6601 23.5225 33.8656 23.6135 34.0828 23.624C34.3001 23.6345 34.5134 23.5637 34.6813 23.4254L38.1532 20.5662C40.6462 23.6647 42.0037 27.5231 42 31.5C42 41.1495 34.1496 49 24.5 49C14.8504 49 7 41.1495 7 31.5C7 21.8505 14.8504 14 24.5 14C28.901 13.9969 33.1403 15.6584 36.3672 18.6509L33.4495 22.1938C33.3113 22.3617 33.2405 22.575 33.251 22.7922C33.2615 23.0094 33.3525 23.215 33.5063 23.3687ZM41.0531 15.911C41.0242 15.8803 40.9959 15.8489 40.9668 15.8183L46.4377 9.17524L47.6996 10.4372L41.0531 15.911ZM49 9.26263L47.6124 7.87499L48.4699 7.0176C48.8211 7.04363 49.1623 7.14669 49.4692 7.31944C49.7761 7.4922 50.0412 7.73042 50.2457 8.01718L49 9.26263ZM49.8961 5.59135L50.1314 5.35608C50.2956 5.19223 50.518 5.10021 50.75 5.10021C50.982 5.10021 51.2044 5.19223 51.3686 5.35608L51.5188 5.50625C51.6826 5.67049 51.7746 5.893 51.7746 6.12499C51.7746 6.35697 51.6826 6.57948 51.5188 6.74372L51.4897 6.77282C51.0618 6.25603 50.515 5.85063 49.8961 5.59135Z" fill="#0ABAB5"/>
</svg>
